<?xml version="1.0" encoding="iso-8859-1"?>
<!-- Generator: Adobe Illustrator 19.0.0, SVG Export Plug-In . SVG Version: 6.00 Build 0)  -->
<svg version="1.1" id="Capa_1" xmlns="http://www.w3.org/2000/svg" xmlns:xlink="http://www.w3.org/1999/xlink" x="0px" y="0px"
	 viewBox="0 0 512 512" style="enable-background:new 0 0 512 512;" xml:space="preserve">
<path style="fill:#FFFFFF;" d="M190.04,102.928c-64.688,0-117.136,52.448-117.136,117.152c0,5.656,0.536,11.184,1.304,16.616
	C34.936,241.024,4,274.176,4,314.576v15.752c0,43.312,35.44,78.752,78.752,78.752h346.496c43.312,0,78.752-35.44,78.752-78.752
	v-15.752c0-43.312-35.44-78.752-78.752-78.752H399.12c0.192-1.968,0.6-3.888,0.6-5.904c0-35.344-28.648-63.992-63.992-63.992
	c-13.656,0-26.24,4.344-36.616,11.624C282.08,133.912,239.728,102.928,190.04,102.928L190.04,102.928z"/>
<path style="fill:#AAC1CE;" d="M429.256,413.08H82.752C37.128,413.08,0,375.952,0,330.328v-15.752
	c0-40.672,29.696-74.944,69.728-81.32c-0.552-4.768-0.824-9.032-0.824-13.184c0-66.8,54.344-121.152,121.136-121.152
	c48.592,0,91.616,28.352,110.92,72.656c10.552-6.336,22.48-9.656,34.768-9.656c37.496,0,67.992,30.496,67.992,67.992
	c0,0.64-0.032,1.28-0.096,1.904h25.624C474.88,231.824,512,268.952,512,314.584v15.752C512,375.952,474.88,413.08,429.256,413.08z
	 M190.04,106.928c-62.384,0-113.136,50.76-113.136,113.152c0,4.888,0.4,9.992,1.264,16.056l0.576,4.088l-4.096,0.448
	C36.656,244.864,8,276.632,8,314.584v15.752c0,41.216,33.528,74.752,74.752,74.752h346.496c41.216,0,74.752-33.528,74.752-74.752
	v-15.752c0-41.216-33.528-74.752-74.752-74.752H394.72l0.416-4.376c0.072-0.752,0.168-1.496,0.272-2.24
	c0.152-1.088,0.312-2.168,0.312-3.288c0-33.08-26.912-59.992-59.992-59.992c-12.28,0-24.16,3.768-34.328,10.904l-4.168,2.92
	l-1.848-4.744C278.304,135.224,236.96,106.928,190.04,106.928z"/>
<g>
	<path style="fill:#629FD6;" d="M195.152,292.984l22.056,6.992c-3.384,12.288-9,21.424-16.864,27.392
		c-7.856,5.968-17.832,8.952-29.928,8.952c-14.96,0-27.248-5.112-36.88-15.328s-14.448-24.192-14.448-41.92
		c0-18.752,4.84-33.312,14.52-43.68c9.68-10.376,22.416-15.56,38.184-15.56c13.784,0,24.976,4.072,33.576,12.216
		c5.128,4.816,8.968,11.728,11.528,20.744l-22.512,5.376c-1.336-5.84-4.112-10.448-8.336-13.832
		c-4.224-3.376-9.368-5.072-15.408-5.072c-8.352,0-15.128,3-20.328,8.992c-5.192,5.992-7.8,15.696-7.8,29.12
		c0,14.24,2.56,24.384,7.68,30.432c5.128,6.048,11.792,9.064,19.984,9.064c6.04,0,11.24-1.912,15.592-5.76
		C190.136,307.28,193.264,301.232,195.152,292.984z"/>
	<path style="fill:#629FD6;" d="M268.464,221.288c10.904,0,19.44,3.896,25.584,11.68c7.32,9.224,10.984,24.512,10.984,45.872
		c0,21.312-3.688,36.624-11.064,45.952c-6.096,7.68-14.6,11.52-25.504,11.52c-10.968,0-19.808-4.208-26.512-12.64
		s-10.064-23.448-10.064-45.064c0-21.208,3.688-36.472,11.064-45.8C249.04,225.136,257.552,221.288,268.464,221.288z
		 M268.464,239.192c-2.616,0-4.944,0.832-6.992,2.496c-2.056,1.664-3.64,4.648-4.768,8.952c-1.496,5.584-2.224,14.984-2.224,28.2
		s0.664,22.296,1.992,27.24c1.336,4.936,3.008,8.232,5.032,9.864c2.024,1.64,4.344,2.464,6.96,2.464
		c2.608,0,4.936-0.832,6.992-2.496c2.048-1.664,3.632-4.656,4.76-8.952c1.496-5.528,2.232-14.904,2.232-28.128
		s-0.672-22.296-2-27.24c-1.336-4.944-3.008-8.248-5.032-9.912S271.072,239.192,268.464,239.192z"/>
	<path style="fill:#629FD6;" d="M380.088,340.904v13.328h-50.304c0.544-5.04,2.176-9.816,4.904-14.32
		c2.72-4.512,8.104-10.496,16.136-17.952c6.472-6.024,10.44-10.112,11.896-12.256c1.976-2.96,2.96-5.88,2.96-8.784
		c0-3.192-0.856-5.656-2.576-7.376s-4.096-2.576-7.128-2.576c-2.992,0-5.376,0.896-7.152,2.704c-1.768,1.808-2.792,4.8-3.064,8.984
		l-14.296-1.432c0.848-7.888,3.52-13.56,8.016-17s10.112-5.16,16.848-5.16c7.392,0,13.192,1.992,17.416,5.976
		c4.216,3.984,6.336,8.936,6.336,14.856c0,3.376-0.608,6.584-1.824,9.632c-1.2,3.048-3.12,6.232-5.744,9.568
		c-1.736,2.208-4.864,5.4-9.4,9.544c-4.52,4.16-7.392,6.912-8.6,8.272c-1.208,1.368-2.184,2.696-2.936,3.984h28.512V340.904z"/>
</g>
<g>
</g>
<g>
</g>
<g>
</g>
<g>
</g>
<g>
</g>
<g>
</g>
<g>
</g>
<g>
</g>
<g>
</g>
<g>
</g>
<g>
</g>
<g>
</g>
<g>
</g>
<g>
</g>
<g>
</g>
</svg>
