<?xml version="1.0" encoding="iso-8859-1"?>
<!-- Generator: Adobe Illustrator 17.1.0, SVG Export Plug-In . SVG Version: 6.00 Build 0)  -->
<!DOCTYPE svg PUBLIC "-//W3C//DTD SVG 1.1//EN" "http://www.w3.org/Graphics/SVG/1.1/DTD/svg11.dtd">
<svg version="1.1" id="Capa_1" xmlns="http://www.w3.org/2000/svg" xmlns:xlink="http://www.w3.org/1999/xlink" x="0px" y="0px"
	 viewBox="0 0 475.801 475.801" style="enable-background:new 0 0 475.801 475.801;" xml:space="preserve">
<path d="M353.712,119.419c1.843-3.71,6.342-5.224,10.054-3.381c3.348,1.663,6.391,3.44,9.042,5.282
	c3.402,2.363,4.244,7.037,1.88,10.438c-1.457,2.097-3.792,3.222-6.166,3.222c-1.477,0-2.968-0.436-4.272-1.342
	c-2.053-1.426-4.46-2.828-7.156-4.167C353.383,127.63,351.87,123.128,353.712,119.419z M290.506,114.866
	c19.294,1.149,37.159,4.169,51.662,8.734c0.75,0.235,1.508,0.348,2.254,0.348c3.188,0,6.145-2.049,7.152-5.25
	c1.244-3.951-0.951-8.162-4.902-9.406c-15.658-4.928-34.771-8.179-55.274-9.398c-4.145-0.273-7.687,2.905-7.933,7.041
	C283.218,111.07,286.371,114.62,290.506,114.866z M475.796,224.636l-0.146,8.411c-0.071,4.091-3.408,7.37-7.499,7.37h-49.739
	L407.593,400.63c-1.836,29.382-26.366,52.426-55.842,52.426h-227.92c-29.476,0-54.005-23.044-55.844-52.463L57.172,240.417H7.651
	c-4.091,0-7.428-3.279-7.499-7.37l-0.146-8.411c-0.318-18.382,13.132-33.579,30.622-34.6c0.674-0.04,1.355-0.06,2.039-0.06h21.099
	l-0.184-2.72h-4.757c-2.2,0-4.289-0.966-5.713-2.642s-2.042-3.893-1.689-6.063l5.768-35.439c0.562-3.45,3.423-6.024,6.863-6.271
	c4.408-17.006,23.888-32.232,55.962-43.458c28.192-9.867,63.934-16.081,102.556-17.97V64.182
	c-10.362-3.725-17.72-10.003-17.72-18.708c0-14.922,21.601-22.729,42.939-22.729s42.94,7.807,42.94,22.729
	c0,8.705-7.357,14.983-17.72,18.708v11.233c38.622,1.889,74.364,8.103,102.556,17.97c32.073,11.226,51.554,26.452,55.962,43.458
	c3.44,0.246,6.302,2.821,6.863,6.271l5.678,34.883c0.136,0.565,0.208,1.155,0.208,1.762c0,4.143-3.358,7.5-7.5,7.5
	c-0.007,0-0.013,0-0.02,0h-4.757l-0.184,2.72h21.317c0.684,0,1.365,0.02,2.042,0.06
	C462.663,191.057,476.114,206.254,475.796,224.636z M60.593,172.257h354.398h2.948l-3.327-20.439H60.972l-3.327,20.439H60.593z
	 M211.05,90.502c7.106,2.155,16.005,3.769,26.741,3.769c10.696,0,18.921-1.665,25.124-3.849c-8.135-0.406-16.514-0.624-25.124-0.624
	C228.611,89.798,219.689,90.042,211.05,90.502z M237.792,53.201c16.965,0,26.648-5.419,27.879-7.728
	c-1.23-2.309-10.914-7.729-27.879-7.729c-16.964,0-26.648,5.42-27.878,7.729C211.144,47.782,220.827,53.201,237.792,53.201z
	 M227.572,74.901c3.391-0.066,6.797-0.103,10.22-0.103c3.422,0,6.829,0.037,10.22,0.104v-7.305c-3.353,0.401-6.79,0.605-10.22,0.605
	c-3.43,0-6.867-0.205-10.22-0.605V74.901z M70.001,136.818h335.581c-9.462-18.893-53.558-37.726-117.286-44.441
	c-6.038,5.854-21.297,16.894-50.505,16.894c-30.219,0-48.731-11.331-55.445-16.345C121.285,100.072,79.217,118.417,70.001,136.818z
	 M56.159,225.417l-1.38-20.44H32.667c-0.389,0-0.777,0.012-1.163,0.034c-9.275,0.541-16.676,9.229-16.5,19.365l0.018,1.041H56.159z
	 M392.625,399.657l14.342-212.4H68.616l0.536,7.943c0.229,0.719,0.354,1.483,0.354,2.277c0,0.433-0.045,0.854-0.115,1.267
	l2.154,31.897c0.229,0.718,0.354,1.483,0.354,2.277c0,0.433-0.045,0.854-0.115,1.267L82.956,399.62
	c1.348,21.569,19.302,38.436,40.875,38.436h227.92C373.325,438.056,391.279,421.19,392.625,399.657z M460.798,224.376
	c0.176-10.137-7.225-18.824-16.497-19.365c-0.389-0.022-0.777-0.034-1.166-0.034h-22.33l-1.38,20.44h41.355L460.798,224.376z
	 M283.451,269.948c0,4.143,3.358,7.5,7.5,7.5s7.5-3.357,7.5-7.5c0-11.12-9.047-20.167-20.167-20.167h-80.986
	c-11.12,0-20.167,9.047-20.167,20.167v127.5c0,11.12,9.047,20.167,20.167,20.167h80.986c11.12,0,20.167-9.047,20.167-20.167v-93.646
	c0-4.143-3.358-7.5-7.5-7.5s-7.5,3.357-7.5,7.5v93.646c0,2.849-2.318,5.167-5.167,5.167h-80.986c-2.849,0-5.167-2.318-5.167-5.167
	v-127.5c0-2.849,2.318-5.167,5.167-5.167h80.986C281.133,264.781,283.451,267.1,283.451,269.948z M220.072,289.355h35.44
	c4.142,0,7.5-3.357,7.5-7.5s-3.358-7.5-7.5-7.5h-35.44c-4.142,0-7.5,3.357-7.5,7.5S215.93,289.355,220.072,289.355z
	 M220.072,312.682h35.44c4.142,0,7.5-3.357,7.5-7.5s-3.358-7.5-7.5-7.5h-35.44c-4.142,0-7.5,3.357-7.5,7.5
	S215.93,312.682,220.072,312.682z M211.95,347.149h51.683c4.142,0,7.5,3.357,7.5,7.5v20.027c0,4.143-3.358,7.5-7.5,7.5H211.95
	c-4.142,0-7.5-3.357-7.5-7.5v-20.027C204.45,350.506,207.808,347.149,211.95,347.149z M219.45,367.176h36.683v-5.027H219.45V367.176
	z"/>
<g>
</g>
<g>
</g>
<g>
</g>
<g>
</g>
<g>
</g>
<g>
</g>
<g>
</g>
<g>
</g>
<g>
</g>
<g>
</g>
<g>
</g>
<g>
</g>
<g>
</g>
<g>
</g>
<g>
</g>
</svg>
